# xmcd CD database file
#
# Track frame offsets:
#	150
#	18180
#	34055
#	52025
#
# Disc length: 903 seconds
#
# Revision: 0
# Processed by: cddbd v1.5.1PL0 Copyright (c) Steve Scherf et al.
# Submitted via: CDex 1.51
#
DISCID=29038504
DTITLE=ICE - Love Makes Me Run
DYEAR=1996
DGENRE=J-POP
TTITLE0=Love Makes Me Run
TTITLE1=Yes, I　Do
TTITLE2=Love Makes Me Run　（In-Strumental）
TTITLE3=Yes, I　Do　（In-Strumental）
EXTD=YEAR: 1996
EXTT0=
EXTT1=
EXTT2=
EXTT3=
PLAYORDER=
